<?xml version="1.0" encoding="UTF-8" standalone="no"?>
<svg
   version="1.1"
   id="Capa_1"
   x="0px"
   y="0px"
   viewBox="0 0 600 179.8"
   style="enable-background:new 0 0 600 179.8;"
   xml:space="preserve"
   width="600"
   height="179.8"
   sodipodi:docname="Logo BBVA.svg"
   inkscape:version="1.4 (86a8ad7, 2024-10-11)"
   xmlns:inkscape="http://www.inkscape.org/namespaces/inkscape"
   xmlns:sodipodi="http://sodipodi.sourceforge.net/DTD/sodipodi-0.dtd"
   xmlns="http://www.w3.org/2000/svg"
   xmlns:svg="http://www.w3.org/2000/svg"
   xmlns:rdf="http://www.w3.org/1999/02/22-rdf-syntax-ns#"
   xmlns:cc="http://creativecommons.org/ns#"
   xmlns:dc="http://purl.org/dc/elements/1.1/"><defs
   id="defs4" /><sodipodi:namedview
   id="namedview4"
   pagecolor="#ffffff"
   bordercolor="#000000"
   borderopacity="0.25"
   inkscape:showpageshadow="2"
   inkscape:pageopacity="0.0"
   inkscape:pagecheckerboard="0"
   inkscape:deskcolor="#d1d1d1"
   inkscape:zoom="1.0447503"
   inkscape:cx="140.70348"
   inkscape:cy="9.0930821"
   inkscape:window-width="1920"
   inkscape:window-height="1001"
   inkscape:window-x="-9"
   inkscape:window-y="-9"
   inkscape:window-maximized="1"
   inkscape:current-layer="g4" />
<style
   type="text/css"
   id="style1">
	.st0{fill:#004481;}
</style>
<title
   id="title1">Mesa de trabajo 1 copia</title>
<g
   id="g4">
	<path
   class="st0"
   d="M432.2,24.4l-51.6,98.2c-1.1,2.1-4.3,2.1-5.4,0l-51.6-98.2c-0.5-1-1.5-1.6-2.6-1.6h-25c-1.7,0-2.8,1.8-2,3.3   l81.3,152.2c1.1,2.1,4.1,2.1,5.3,0l81.3-152.2c0.8-1.5-0.3-3.3-2-3.3h-25C433.7,22.8,432.7,23.4,432.2,24.4L432.2,24.4z"
   id="path1"
   style="fill:#001391;fill-opacity:1" />
	<path
   class="st0"
   d="M461.5,155.5l51.6-98.2c1.1-2.1,4.3-2.1,5.4,0l51.6,98.2c0.5,1,1.5,1.6,2.6,1.6h25c1.7,0,2.8-1.8,2-3.3   L518.4,1.6c-1.1-2.1-4.1-2.1-5.3,0l-81.3,152.2c-0.8,1.5,0.3,3.3,2,3.3h25C459.9,157,461,156.4,461.5,155.5L461.5,155.5z"
   id="path2"
   style="fill:#001391;fill-opacity:1" />
	<path
   class="st0"
   d="M108.8,95.2c10.8-5.4,17.5-17.1,17.5-31.4c0-24.5-19.1-41.1-46-41.1H3c-1.7,0-3,1.3-3,3v151.1c0,1.7,1.3,3,3,3   h74c37,0,56.5-15.9,56.5-47.1C133.5,102.3,108.8,95.2,108.8,95.2L108.8,95.2z M29,45.5h45.9c16.9,0,25.5,7.2,25.5,20.6   c0,13.4-8.6,20.6-25.5,20.6H29c-1.6,0-3-1.3-3-3V48.5C26,46.8,27.3,45.5,29,45.5L29,45.5z M75.5,157l-46.5,0c-1.7,0-3-1.3-3-3   l0-41.7c0-1.6,1.3-3,3-3h46.5c22.2,0,32.1,6.3,32.1,23.8C107.5,150.8,97.9,157,75.5,157L75.5,157z"
   id="path3"
   style="fill:#001391;fill-opacity:1" />
	<path
   class="st0"
   d="M267.5,95.2c10.8-5.4,17.5-17.1,17.5-31.4c0-24.5-19.1-41.1-46-41.1h-77.4c-1.7,0-3,1.3-3,3v151.1   c0,1.7,1.3,3,3,3h74c37,0,56.5-15.9,56.5-47.1C292.2,102.3,267.5,95.2,267.5,95.2L267.5,95.2z M187.7,45.5h45.9   c16.9,0,25.5,7.2,25.5,20.6c0,13.4-8.6,20.6-25.5,20.6h-45.9c-1.7,0-3-1.3-3-3V48.5C184.7,46.8,186,45.5,187.7,45.5L187.7,45.5z    M234.1,157l-46.5,0c-1.6,0-3-1.3-3-3v-41.7c0-1.6,1.3-3,3-3h46.5c22.2,0,32.1,6.3,32.1,23.8C266.2,150.8,256.5,157,234.1,157   L234.1,157z"
   id="path4"
   style="fill:#001391;fill-opacity:1" />
</g>
<metadata
   id="metadata4"><rdf:RDF><cc:Work
       rdf:about=""><dc:title>Mesa de trabajo 1 copia</dc:title></cc:Work></rdf:RDF></metadata></svg>
